<svg xmlns="http://www.w3.org/2000/svg"><g xmlns:inkscape="http://www.inkscape.org/namespaces/inkscape" id="a" style="display:inline"><path style="fill:#bd1550;fill-opacity:1;stroke:none;stroke-width:1.37473226;stroke-linecap:round;stroke-linejoin:round;stroke-miterlimit:4;stroke-dasharray:none;stroke-dashoffset:0;stroke-opacity:1" d="M204.502-182.696c-15.964-.116-29.366 2.853-36.377 8.79L67.358-88.572c-12.21 10.34-17.347 24.496-16.426 32.06l2.92 25.015c.034.27.08.555.136.85l1.76 15.615h.017C59.131.976 71.552 18.426 93.685 38.802c9.574 7.408 19.174 13.831 30.178 20.275 53.566 36.212 118.919 13.515 137.197-9.393 18.279-22.908 54.795-141.105 54.795-141.105 1.135-2.712 3.711-20.313 3.711-20.313.6-1.473 1.745-10.4 2.187-14.165 0 0 .167-4.768-1.087-9.03-2.188-8.999-21.298-26.347-54.84-35.836l-21.234-6.008c-13.71-3.88-27.674-5.833-40.09-5.923z" transform="translate(-50.828 187.786)"/><path style="fill:#e97f02;fill-opacity:1;stroke:none;stroke-width:1.38520825;stroke-linecap:round;stroke-linejoin:round;stroke-miterlimit:4;stroke-dasharray:none;stroke-dashoffset:0;stroke-opacity:1" d="M204.502-182.696c-15.964-.116-29.366 2.853-36.377 8.79L67.358-88.572c-12.21 10.34-17.347 24.496-16.426 32.06l2.92 25.015C54.989-22.48 68.216-.66 92.4 15.035l31.51 20.934c55.798 36.208 123.847 30.296 140.39-10.298l55.265-137.405c.6-1.473 1.746-10.4 2.188-14.165 0 0 .166-4.768-1.087-9.03-2.189-8.999-21.298-26.347-54.841-35.836l-21.234-6.008c-13.71-3.88-27.674-5.833-40.09-5.923zm97.789 43.732c1.9.335 6.941 3.933 9.46 8.388-3.29-1.526-8.026-4.377-10.37-7.945.305-.21.662-.399.91-.443zM236.009 22.459c1.713.02 3.586.21 5.145.495-1.454 1.062-3.18 2.255-4.885 3.24-6.995 4.045-14.894 5.443-20.074 5.293 1.026-1.229 2.302-2.55 3.661-3.608 4.922-3.83 10.237-5.278 15.151-5.412.337-.009.67-.011 1.002-.008z" xmlns:sodipodi="http://sodipodi.sourceforge.net/DTD/sodipodi-0.dtd" transform="translate(-50.828 187.786)"/><path style="fill:#f8ca00;fill-opacity:1;stroke:none;stroke-width:1.50343013;stroke-linecap:round;stroke-linejoin:round;stroke-miterlimit:4;stroke-dasharray:none;stroke-dashoffset:0;stroke-opacity:1" d="M69.852-87.228C44.555-65.567 51.564-26.758 93.794.029l30.252 19.19c53.883 34.18 119.731 29.687 136.1-8.573l58.436-136.593c6.327-14.787-19.264-34.174-53.958-44.038l-20.63-5.866c-30.308-8.617-61.883-7.505-73.8 2.7L69.852-87.228M213.108 21.18c1.637-2.887 3.876-6.999 9.06-9.84 10.16-5.569 22.176-3.205 27.49-1.106 2.99 1.786-3.15 9.841-13.475 15.811-10.621 6.141-22.926 6.198-25.446 3.964-.456-1.513.711-5.902 2.371-8.83m87.807-166.122c.51-1.1 1.83-2.299 2.642-2.444 1.98.35 7.324 4.157 9.722 8.873 2.49 4.892 2.218 9.157-.005 8.548-3.506-1.375-10.348-5.08-12.588-9.92-1.09-2.354-.286-3.947.23-5.057" transform="translate(-50.828 187.786)"/><path d="M74.078-87.148c-.061.043-.104.091-.152.136-2.032 3.99 1.629 9.038 1.11 13.554-.782 7.286-5.316 9.547-15.18 18.662C60.879-37.416 73.079-18.203 96.572-3.5l28.664 17.941c23.447 14.676 50.542 21.6 74.714 20.391C204.568 25.366 210.166 9.583 219.938 5c9.598-4.837 25.43.906 36.833-5.344l55.6-124.112c-2.987-6.096-13.283-10.353-15.514-14.91-2.215-4.148 1.906-8.843 3.96-11.908-9.237-7.036-22.572-13.416-38.136-17.869l-19.73-5.644c-16.758-4.794-33.637-6.394-47.064-5.12-4.205 3.847-4.629 5.508-10.785 6.65-3.985.754-10.034.204-13.292 1.427-.06.036-.085.068-.121.104L74.08-87.147" style="fill:#490a3d;fill-opacity:1;stroke:none;stroke-width:4.51029062;stroke-linecap:round;stroke-linejoin:round;stroke-miterlimit:4;stroke-dasharray:none;stroke-dashoffset:0;stroke-opacity:1" transform="translate(-50.828 187.786)"/><path xmlns:sodipodi="http://sodipodi.sourceforge.net/DTD/sodipodi-0.dtd" d="M209.81-172.929c3.606-3.632 14.894-4.042 25.582-.942 9.611 2.788 16.116 7.665 15.221 11.628 1.264 1.314 3.955 2.31 6.69 2.634.764-.012 1.56.012 2.378.068l.948.07c2.543.24 5.224.766 7.804 1.534 8.557 2.551 14.096 7.157 12.16 10.308-1.985 3.231-10.968 3.602-19.836.808-4.98-1.568-8.984-3.874-10.825-6.193l-.189-.228c-.443-.608-.722-1.203-.836-1.77-1.395-1.27-4.267-2.343-7.017-2.574-1.03.114-2.124.18-3.268.194l-.061.001c-4.918.07-10.512-.79-15.638-2.393-11.156-3.499-16.85-9.393-13.124-13.145M87.889-50.155c-8.895 8.96-5.07 23.414 9.571 32.229 13.415 8.063 30.823 8.304 40.501.544 4.046-.512 8.197 1.267 10.775 4.198a21.63 21.63 0 0 0 1.754 2.936l.81 1.108c2.315 2.916 5.446 5.55 9.105 7.641 12.25 6.995 26.644 6.109 31.569-1.908 4.734-7.706-1.35-18.81-13.07-24.885-6.533-3.379-13.901-4.693-20-3.59l-.612.104c-1.602.34-3.082.848-4.406 1.511-3.725.19-7.957-1.59-10.17-4.39a20.91 20.91 0 0 0-1.516-3.9v-.062c-2.723-5.42-7.843-10.264-14.33-13.66-14.002-7.31-31.489-6.401-39.952 2.122" style="fill:#bd1550;fill-opacity:1;stroke:none;stroke-width:4.91997528;stroke-linecap:round;stroke-linejoin:round;stroke-miterlimit:4;stroke-dasharray:none;stroke-dashoffset:0;stroke-opacity:1" transform="translate(-50.828 187.786)"/><path style="fill:#e97f02;fill-opacity:1;stroke:none;stroke-width:8.86979008;stroke-linecap:round;stroke-linejoin:round;stroke-miterlimit:4;stroke-dasharray:none;stroke-dashoffset:0;stroke-opacity:1" d="m90.728-85.395 89.06-81.343c.176-.161.665-.18 1.095-.042l102.455 33.02c.566.181.922.498.801.71L220.304-20.608c-.243.428-1.034.473-1.773.103L91.063-84.407c-.51-.255-.657-.696-.334-.99" transform="translate(-50.828 187.786)"/><path style="fill:#e97f02;fill-opacity:1;stroke:none;stroke-width:3.87133265;stroke-linecap:round;stroke-linejoin:round;stroke-miterlimit:4;stroke-dasharray:none;stroke-dashoffset:0;stroke-opacity:1" d="M117.898-56.639c-.446.02-.777.125-.956.323l-5.16 5.521v.008l.355 4.901 1.649 5.82 3.184 1.76-.723.813.001.004.251 4.9 2.7 6.21 9.645 5.487c1.418.806 4.012-.356 5.792-2.585l.967-1.21c.901-1.128 1.398-2.296 1.486-3.275h.018l.223-4.796-.009-.002c.12-.972-.167-1.767-.89-2.154l-9.747-5.226v-.002l-.101.002 3.525-4.107a1.84 1.84 0 0 0 .326-.717l.06-4.77h-.008c.01-.959-1.909-2.665-4.72-4.117l-1.762-.911c-2.395-1.237-4.767-1.938-6.106-1.877zM97.486-55.56c-1.367-.067-3.337.877-4.892 2.44l-1.056 1.06c-1.336 1.343-2.014 2.783-1.892 3.786h-.002l.002.004.921 5.185c.043.21.24.555.61.765l8.283 4.713-4.654 4.982c-.18.188-.229.44-.171.733h-.007c0-.03.732 4.642.732 4.642h.019c-.055 1.068 1.74 2.955 4.509 4.594l1.784 1.06c3.288 1.946 6.61 2.772 7.415 1.836l5.459-6.36-.3-4.903v-.005l-1.787-6.247-3.09-1.705.812-.9-.403-4.904.001-.002-2.516-5.769-8.94-4.793a1.966 1.966 0 0 0-.837-.212zm133.166-120.587c-1.263.045-2.272.318-2.732.806a.884.884 0 0 0-.244.498h-.005l-.697 2.553.005.003c-.29.961 1.247 2.22 3.803 2.98 2.92.87 6.014.754 6.882-.257a.91.91 0 0 0 .185-.356l.012.004 1.052-2.714h-.004c.25-.972-1.39-2.22-4.006-2.961-1.474-.418-2.99-.6-4.251-.555zm-15.177.543c-1.267.045-2.297.32-2.79.81a.944.944 0 0 0-.29.563h-.006l-.28 2.653.024.007c-.144.94 1.27 2.104 3.641 2.826 2.869.874 5.977.756 6.912-.26.079-.085.113-.179.156-.27l.026.007.017-.074c.018-.055.03-.111.043-.17l.61-2.612-.013-.003c.242-.968-1.304-2.187-3.827-2.92-1.45-.42-2.955-.602-4.223-.557zm23.425 6.81c-1.302.049-2.333.34-2.79.86a.97.97 0 0 0-.2.356l-.008-.001-.967 2.73h.003c-.261 1.024 1.375 2.361 4.042 3.173 3.05.93 6.242.804 7.1-.276.037-.042.037-.09.063-.134l.026.005 1.316-2.74a.992.992 0 0 0 .025-.053l.015-.03-.004-.002c.417-1.054-1.352-2.468-4.206-3.295-1.54-.446-3.113-.64-4.415-.592zm-15.655.578c-1.308.048-2.36.34-2.853.862a1.01 1.01 0 0 0-.263.492l-.005-.001-.509 2.686.012.003c-.21 1.016 1.32 2.304 3.86 3.096 2.996.934 6.202.809 7.133-.276.102-.119.161-.247.201-.377l.012.003.823-2.673c.011-.032.024-.064.03-.097l.01-.03-.005-.002c.183-1.029-1.451-2.315-4.064-3.09-1.511-.448-3.074-.643-4.382-.595zm37.658 7.126c-2.865-.028-5.127.54-5.992 1.675a1.721 1.721 0 0 0-.352.853h-.005l-.658 3.513.012.004c-.456 2.019 2.854 4.718 8.124 6.363 5.974 1.865 12.021 1.62 13.401-.54.065-.101.105-.206.147-.31l.012.002.03-.081c.005-.012.007-.024.013-.036l1.304-3.734-.009-.003c.623-2.096-3.053-4.917-8.62-6.546-2.585-.756-5.177-1.139-7.406-1.16zM167.16-32.692c-4.281-.077-8.017 1.257-10.013 3.935a7.241 7.241 0 0 0-1.28 2.805l-.003-.003-1.224 5.392c-.037.148-.377 1.283-.269 2.846.086 1.227.577 3.083 2.162 5.25s3.995 4.492 7.211 6.298c8.223 4.617 17.747 4.007 21.135-1.298.455-.712.76-1.47.862-1.864l1.479-5.792-.003-.002c1.275-4.951-2.664-11.149-9.638-14.8-3.43-1.796-7.09-2.708-10.42-2.767z" transform="translate(-50.828 187.786)"/><path style="fill:#f8ca00;fill-opacity:1;stroke:none;stroke-width:3.91696954;stroke-linecap:round;stroke-linejoin:round;stroke-miterlimit:4;stroke-dasharray:none;stroke-dashoffset:0;stroke-opacity:1" d="m111.782-50.794 1.688 5.822 3.976 2.145 7.851-.774 5.05-5.748c.716-.815-1.341-2.829-4.582-4.503l-1.762-.91c-3.193-1.65-6.345-2.346-7.061-1.554l-5.16 5.522m-11.28 12.072 7.951-.765 4.006 2.212 1.788 6.252-5.586 6.359c-.824.937-4.224.111-7.59-1.835l-1.828-1.058c-3.313-1.917-5.294-4.18-4.438-5.069l5.697-6.096m26.182-1.42-8.17.098-2.266 2.55 2.764 6.207 9.874 5.487c1.451.807 4.107-.355 5.93-2.583l.99-1.21c1.79-2.189 2.058-4.553.626-5.32l-9.748-5.228m-19.422-10.415 2.517 5.77-2.297 2.483-8.121.095-9.035-5.02c-1.286-.715-.734-2.877 1.212-4.833l1.056-1.061c1.913-1.923 4.458-2.909 5.73-2.227l8.938 4.793m112.436-124.492c2.92.846 4.535 2.347 3.581 3.354-.962 1.016-4.16 1.132-7.112.259-2.93-.867-4.476-2.373-3.482-3.361.987-.98 4.114-1.092 7.013-.252m23.616 6.845c3.101.9 4.93 2.494 4.054 3.563-.884 1.08-4.17 1.203-7.31.274-3.115-.921-4.87-2.52-3.948-3.57.913-1.04 4.126-1.158 7.204-.266m-4.611-4.052c-.893 1.01-4.077 1.127-7.083.257-2.983-.863-4.626-2.362-3.7-3.346.92-.975 4.035-1.087 6.984-.25 2.97.843 4.684 2.337 3.799 3.339m-7.254 8.211c-.958 1.084-4.258 1.208-7.341.275-3.059-.926-4.71-2.533-3.716-3.587.985-1.045 4.211-1.164 7.235-.268 3.047.904 4.771 2.505 3.822 3.58m36.86 4.111c5.993 1.754 9.802 4.89 8.408 7.014-1.419 2.16-7.631 2.408-13.77.543-6.048-1.837-9.599-4.993-8.036-7.042 1.537-2.016 7.491-2.243 13.398-.515m-90.73 130.008c8.017 4.197 12.027 11.759 8.712 16.925-3.404 5.305-13.073 5.887-21.332 1.27-8.07-4.511-11.454-12.145-7.812-17.028 3.55-4.761 12.592-5.272 20.432-1.167" transform="translate(-50.828 187.786)"/><path xmlns:sodipodi="http://sodipodi.sourceforge.net/DTD/sodipodi-0.dtd" d="M180.858-162.87c.172-.16.648-.177 1.068-.043l100.453 32.963-61.89 109.347c-.237.42-1.102.524-1.822.16-41.808-20.956-81.795-41.003-123.603-61.959z" style="display:inline;opacity:.95;fill:#f8ca00;fill-opacity:1;stroke:none;stroke-width:8.67802525;stroke-linecap:round;stroke-linejoin:round;stroke-miterlimit:4;stroke-dasharray:none;stroke-dashoffset:0;stroke-opacity:1" transform="translate(-50.828 187.786)"/></g><use xlink:href="#a" xmlns:xlink="http://www.w3.org/1999/xlink"/></svg>